<svg xmlns="http://www.w3.org/2000/svg" xmlns:xlink="http://www.w3.org/1999/xlink" id="Layer_1" data-name="Layer 1" viewBox="0 0 21.997 20.952">
  <defs>
    <linearGradient id="linear-gradient" x1="2.899" y1="18.892" x2="3.719" y2="19.502" gradientTransform="matrix(13.804, 0, 0, -6.987, -38.399, 149.706)" gradientUnits="userSpaceOnUse">
      <stop offset="0" stop-color="#279e91"/>
      <stop offset="0.087" stop-color="#43afa4"/>
      <stop offset="0.178" stop-color="#58bcb3"/>
      <stop offset="0.267" stop-color="#65c4bc"/>
      <stop offset="0.35" stop-color="#69c7bf"/>
    </linearGradient>
    <linearGradient id="linear-gradient-2" x1="2.891" y1="18.167" x2="3.592" y2="19.141" gradientTransform="matrix(9.534, 0, 0, -15.535, -25.581, 298.204)" gradientUnits="userSpaceOnUse">
      <stop offset="0" stop-color="#d7df23"/>
      <stop offset="0.003" stop-color="#d6df23"/>
      <stop offset="0.403" stop-color="#80b942"/>
      <stop offset="0.509" stop-color="#7cb842"/>
      <stop offset="0.61" stop-color="#71b443"/>
      <stop offset="0.71" stop-color="#5daf44"/>
      <stop offset="0.809" stop-color="#42a745"/>
      <stop offset="0.906" stop-color="#1f9c47"/>
      <stop offset="0.978" stop-color="#009348"/>
    </linearGradient>
    <linearGradient id="linear-gradient-3" x1="3.047" y1="19.142" x2="3.574" y2="18.141" gradientTransform="matrix(16.283, 0, 0, -20.952, -40.121, 401.083)" gradientUnits="userSpaceOnUse">
      <stop offset="0" stop-color="#4dbeee"/>
      <stop offset="0.399" stop-color="#289fda"/>
      <stop offset="0.782" stop-color="#0b86cb"/>
      <stop offset="1" stop-color="#007dc5"/>
    </linearGradient>
  </defs>
  <title>Drive-logo_01</title>
  <g>
    <path d="M5.267,15.576H1.573c-1.4,0-1.712-.891-1.48-1.619l-.023.072a1.543,1.543,0,0,0,.24,1.322c.639,1.227,2.648,4.907,2.648,4.907a1.23,1.23,0,0,0,1.169.684,7.6,7.6,0,0,0,2.937-1.165l6.754-4.2Z" transform="translate(-0.014 0.002)" style="fill: url(#linear-gradient)"/>
    <path d="M6.633.049H6.62a.9.9,0,0,0-.945.557L.132,13.847c-.3.744-.034,1.73,1.441,1.73H5.267L9.557,5.428C8.413,2.718,7.58.743,7.573.728A1.019,1.019,0,0,0,6.633.049Z" transform="translate(-0.014 0.002)" style="fill: url(#linear-gradient-2)"/>
    <path d="M13.407.568A.952.952,0,0,0,12.5,0H6.621a.944.944,0,0,0-.893.5A.937.937,0,0,1,6.621.054h.013a1.019,1.019,0,0,1,.94.68c.006.014.839,1.99,1.984,4.7L16.106,20.95h5.9S13.46.692,13.407.568Z" transform="translate(-0.014 0.002)" style="fill: url(#linear-gradient-3)"/>
  </g>
</svg>